<svg width="1024" height="1024" viewBox="0 0 1024 1024" fill="none" xmlns="http://www.w3.org/2000/svg">
<rect width="1024" height="1024" fill="#FEFEFE"/>
<path d="M583.426 495.71L554.325 524.803L795.391 765.8L747.179 814L506.112 573.002L265.048 814L216.835 765.8L535.21 447.51C515.177 397.855 535.885 326.338 590.486 271.752C657.054 205.201 748.795 189.016 795.391 235.602C841.988 282.187 825.801 373.901 759.23 440.452C704.629 495.039 633.094 515.74 583.426 495.71ZM240.941 211.501L469.954 440.452L373.527 536.851L240.941 404.302C187.686 351.061 187.686 264.742 240.941 211.501ZM711.018 392.251C753.881 349.402 762.718 299.336 747.179 283.801C731.64 268.267 681.559 277.102 638.699 319.951C595.838 362.801 587.002 412.867 602.541 428.4C618.076 443.935 668.157 435.101 711.018 392.251Z" fill="#F4A62A"/>
</svg>
